<svg xmlns="http://www.w3.org/2000/svg" viewBox="0 0 43.672 67.509">
  <defs>
    <style>
      .cls-1 {
        fill: #fff;
        fill-rule: evenodd;
      }
    </style>
  </defs>
  <path id="s" class="cls-1" d="M616.958,65.3a30.065,30.065,0,0,1-9.851-6.365l-.779-.779,6.5-8.7,1.016.982a24.579,24.579,0,0,0,7.245,4.706,20.137,20.137,0,0,0,7.786,1.693,11.275,11.275,0,0,0,7.245-2.2,6.964,6.964,0,0,0,2.573-5.552c0-5.552-5.992-8.193-12.492-11.036-8.531-3.758-17.909-7.888-17.909-19.331a17.335,17.335,0,0,1,6.161-13.508A24.143,24.143,0,0,1,630.128,0a30.112,30.112,0,0,1,10.156,1.76,24.51,24.51,0,0,1,8.26,4.977l.711.677-5.248,9.445-1.151-1.083a20.792,20.792,0,0,0-6.161-3.792,19.231,19.231,0,0,0-6.906-1.422,12.069,12.069,0,0,0-7.414,2.234,6.784,6.784,0,0,0-2.675,5.417c0,5.214,5.755,7.685,12.086,10.393C640.419,32.3,650,36.393,650,48.344a18.374,18.374,0,0,1-6.026,13.948c-3.622,3.25-8.8,5.214-15.3,5.214A30.491,30.491,0,0,1,616.958,65.3Z" transform="translate(-606.328)"/>
</svg>
